<?xml version="1.0" encoding="UTF-8"?>
<!DOCTYPE svg PUBLIC "-//W3C//DTD SVG 1.1//EN" "http://www.w3.org/Graphics/SVG/1.1/DTD/svg11.dtd">
<svg xmlns="http://www.w3.org/2000/svg" version="1.1" width="304px" height="218px" style="shape-rendering:geometricPrecision; text-rendering:geometricPrecision; image-rendering:optimizeQuality; fill-rule:evenodd; clip-rule:evenodd" xmlns:xlink="http://www.w3.org/1999/xlink">
<g><path style="opacity:1" fill="#296087" d="M -0.5,-0.5 C 100.833,-0.5 202.167,-0.5 303.5,-0.5C 303.5,72.1667 303.5,144.833 303.5,217.5C 202.167,217.5 100.833,217.5 -0.5,217.5C -0.5,144.833 -0.5,72.1667 -0.5,-0.5 Z"/></g>
<g><path style="opacity:1" fill="#fefffe" d="M 34.5,19.5 C 111.167,19.3333 187.834,19.5 264.5,20C 271.598,22.0993 276.432,26.5993 279,33.5C 279.667,84.1667 279.667,134.833 279,185.5C 276.725,192.775 271.892,197.275 264.5,199C 187.833,199.667 111.167,199.667 34.5,199C 27.4295,197.052 22.9295,192.552 21,185.5C 20.3333,134.833 20.3333,84.1667 21,33.5C 23.3519,26.6498 27.8519,21.9832 34.5,19.5 Z"/></g>
<g><path style="opacity:1" fill="#2a6188" d="M 35.5,24.5 C 111.501,24.3333 187.501,24.5 263.5,25C 268.573,26.4056 272.073,29.5723 274,34.5C 274.986,85.5584 274.653,136.558 273,187.5C 270.736,190.433 267.902,192.6 264.5,194C 188.167,194.667 111.833,194.667 35.5,194C 30.9743,192.141 27.8077,188.974 26,184.5C 25.3333,134.5 25.3333,84.5 26,34.5C 28.0223,29.98 31.189,26.6467 35.5,24.5 Z"/></g>
<g><path style="opacity:1" fill="#fefefd" d="M 55.5,35.5 C 75.1974,35.1206 94.864,35.6206 114.5,37C 128.97,37.8269 138.47,44.9936 143,58.5C 144.106,75.804 144.606,93.1373 144.5,110.5C 144.606,127.863 144.106,145.196 143,162.5C 140.233,176.252 131.733,183.086 117.5,183C 96.836,183.5 76.1694,183.667 55.5,183.5C 55.5,134.167 55.5,84.8333 55.5,35.5 Z"/></g>
<g><path style="opacity:1" fill="#fefefd" d="M 158.5,35.5 C 176.503,35.3334 194.503,35.5001 212.5,36C 230.04,36.5452 240.54,45.3786 244,62.5C 244.667,70.8333 244.667,79.1667 244,87.5C 243.436,91.1267 241.936,94.2934 239.5,97C 235.196,99.7706 230.529,101.771 225.5,103C 238.064,104.898 245.231,112.064 247,124.5C 247.667,136.833 247.667,149.167 247,161.5C 244.342,176.811 235.176,183.978 219.5,183C 199.169,183.5 178.836,183.667 158.5,183.5C 158.5,134.167 158.5,84.8333 158.5,35.5 Z"/></g>
<g><path style="opacity:1" fill="#33618b" d="M 93.5,60.5 C 98.5085,59.7707 102.342,61.4374 105,65.5C 105.667,93.8333 105.667,122.167 105,150.5C 103.749,156.719 99.9158,159.386 93.5,158.5C 93.5,125.833 93.5,93.1667 93.5,60.5 Z"/></g>
<g><path style="opacity:1" fill="#36658e" d="M 196.5,60.5 C 201.126,59.7004 204.96,61.0337 208,64.5C 210.282,73.6351 209.949,82.6351 207,91.5C 203.757,93.2625 200.257,93.9292 196.5,93.5C 196.5,82.5 196.5,71.5 196.5,60.5 Z"/></g>
<g><path style="opacity:1" fill="#36658d" d="M 196.5,116.5 C 200.634,115.943 204.301,116.943 207.5,119.5C 209.041,125.54 209.707,131.707 209.5,138C 209.333,142.5 209.167,147 209,151.5C 206.742,156.968 202.575,159.301 196.5,158.5C 196.5,144.5 196.5,130.5 196.5,116.5 Z"/></g>
</svg>
